{"title":"Hart's War 2002 DVDRiP-Deemu","uid":5986929,"size":872773809,"categoryP":"video","categoryS":"movies","magnet":"?xt=urn:btih:c626ddacf39c41ba38258ef6f52188aa0dad30d4&amp;dn=Hart%5C%27s+War+2002+DVDRiP-Deemu&amp;tr=udp%3A%2F%2Ftracker.openbittorrent.com%3A80&amp;tr=udp%3A%2F%2Fopen.demonii.com%3A1337&amp;tr=udp%3A%2F%2Ftracker.coppersurfer.tk%3A6969&amp;tr=udp%3A%2F%2Fexodus.desync.com%3A6969","seeders":0,"leechers":1,"uploader":"treacherous_hawk","files":4,"time":1290766291,"description":"Cover:\n=================================================================================== &lt;a href=&quot;\nhttp://img839.imageshack.us/img839/7485/hartswarfront.jpg&quot; rel=&quot;nofollow&quot; target=&quot;_NEW&quot;&gt;\nhttp://img839.imageshack.us/img839/7485/hartswarfront.jpg&lt;/a&gt;\n===================================================================================\n\nStoryline:\n===================================================================================\nFourth-generation Army Col. William McNamara is imprisoned in a brutal German POW camp. Still, as the senior-ranking American officer, he commands his fellow inmates, keeping a sense of honor alive in a place where honor is easy to destroy, all under the dangerous eye of the Luftwafe vetran Col. Wilhelm Visser. Never giving up the fight to win the war, McNamara is silently planning, waiting for his moment to strike back at the enemy. A murder in the camp gives him the chance to set a risky plan in motion. With a court martial to keep Visser and the Germans distracted, McNamara orchestrates a cunning scheme to escape and destroy a nearby munitions plant, enlisting the unwitting help of young Lt. Tommy Hart. Together with his men, McNamara uses a hero's resolve to carry out his mission, ultimately forced to weigh the value of his life against the good of his country.\n===================================================================================\n\nCast:\n===================================================================================\nBruce Willis \t... Col. William A. McNamara\nColin Farrell \t... Lt. Thomas W. Hart\nTerrence Howard ... Lt. Lincoln A. Scott\nCole Hauser \t... Staff Sgt. Vic W. Bedford\nMarcel Iures \t... Col. Werner Visser\nLinus Roache \t... Capt. Peter A. Ross\nVicellous Reon Shannon \t..Lt. Lamar T. Archer \nMaury Sterling \t...Pfc. Dennis A. Gerber\nSam Jaeger \t...Capt. R.G. Sisk\nScott Michael Campbell \t...Cpl. Joe S. Cromin\nRory Cochrane \t...Sgt. Carl S. Webb\nSebastian Tillinger ... Pvt. Bert D. 'Moose' Codman\nRick Ravanello \t... Maj. Joe Clary\nAdrian Grenier \t... Pvt. Daniel E. Abrams\nMichael Weston \t... Pfc. W. Roy Potts\n===================================================================================\n\nVideo Specs:\n===================================================================================\nFormat                           : MPEG-4 Visual\nFormat settings, BVOP            : Yes\nFormat settings, QPel            : No\nFormat settings, GMC             : No warppoints\nFormat settings, Matrix          : Default (H.263)\nMuxing mode                      : Packed bitstream\nCodec ID                         : DX50\nCodec ID/Hint                    : DivX 5\nDuration                         : 2h 4mn\nBit rate                         : 795 Kbps\nWidth                            : 720 pixels\nHeight                           : 304 pixels\nDisplay aspect ratio             : 2.2:1\nFrame rate                       : 23.976 fps\nColor space                      : YUV\nChroma subsampling               : 4:2:0\nBit depth                        : 8 bits\nScan type                        : Progressive\nBits/(Pixel*Frame)               : 0.152\nStream size                      : 710 MiB (85%)\n===================================================================================\n\nAudio Specs:\n===================================================================================\nFormat                           : MPEG Audio\nFormat version                   : Version 1\nFormat profile                   : Layer 3\nMode                             : Joint stereo\nMode extension                   : MS Stereo\nCodec ID                         : 55\nCodec ID/Hint                    : MP3\nDuration                         : 2h 4mn\nBit rate mode                    : Constant\nBit rate                         : 128 Kbps\nChannel(s)                       : 2 channels\nSampling rate                    : 48.0 KHz\nStream size                      : 114 MiB (14%)\nAlignment                        : Aligned on interleaves\nInterleave, duration             : 42 ms (1.00 video frame)\nInterleave, preload duration     : 504 ms\n===================================================================================\n\nScreens:\n=================================================================================== &lt;a href=&quot;\nhttp://img253.imageshack.us/img253/2157/vlcsnap2010112613h59m33.png&quot; rel=&quot;nofollow&quot; target=&quot;_NEW&quot;&gt;\nhttp://img253.imageshack.us/img253/2157/vlcsnap2010112613h59m33.png&lt;/a&gt; &lt;a href=&quot;\nhttp://img152.imageshack.us/img152/2527/vlcsnap2010112613h58m50.png&quot; rel=&quot;nofollow&quot; target=&quot;_NEW&quot;&gt;\nhttp://img152.imageshack.us/img152/2527/vlcsnap2010112613h58m50.png&lt;/a&gt; &lt;a href=&quot;\nhttp://img163.imageshack.us/img163/5964/vlcsnap2010112613h59m52.png&quot; rel=&quot;nofollow&quot; target=&quot;_NEW&quot;&gt;\nhttp://img163.imageshack.us/img163/5964/vlcsnap2010112613h59m52.png&lt;/a&gt; &lt;a href=&quot;\nhttp://img29.imageshack.us/img29/184/vlcsnap2010112613h59m59.png&quot; rel=&quot;nofollow&quot; target=&quot;_NEW&quot;&gt;\nhttp://img29.imageshack.us/img29/184/vlcsnap2010112613h59m59.png&lt;/a&gt; &lt;a href=&quot;\nhttp://img821.imageshack.us/img821/8747/vlcsnap2010112614h00m15.png&quot; rel=&quot;nofollow&quot; target=&quot;_NEW&quot;&gt;\nhttp://img821.imageshack.us/img821/8747/vlcsnap2010112614h00m15.png&lt;/a&gt; &lt;a href=&quot;\nhttp://img219.imageshack.us/img219/5806/vlcsnap2010112614h00m22.png&quot; rel=&quot;nofollow&quot; target=&quot;_NEW&quot;&gt;\nhttp://img219.imageshack.us/img219/5806/vlcsnap2010112614h00m22.png&lt;/a&gt; &lt;a href=&quot;\nhttp://img842.imageshack.us/img842/3063/vlcsnap2010112614h00m32.png&quot; rel=&quot;nofollow&quot; target=&quot;_NEW&quot;&gt;\nhttp://img842.imageshack.us/img842/3063/vlcsnap2010112614h00m32.png&lt;/a&gt; &lt;a href=&quot;\nhttp://img146.imageshack.us/img146/51/vlcsnap2010112614h00m38.png&quot; rel=&quot;nofollow&quot; target=&quot;_NEW&quot;&gt;\nhttp://img146.imageshack.us/img146/51/vlcsnap2010112614h00m38.png&lt;/a&gt; &lt;a href=&quot;\nhttp://img812.imageshack.us/img812/7274/vlcsnap2010112614h01m16.png&quot; rel=&quot;nofollow&quot; target=&quot;_NEW&quot;&gt;\nhttp://img812.imageshack.us/img812/7274/vlcsnap2010112614h01m16.png&lt;/a&gt; &lt;a href=&quot;\nhttp://img16.imageshack.us/img16/5941/vlcsnap2010112614h01m25.png&quot; rel=&quot;nofollow&quot; target=&quot;_NEW&quot;&gt;\nhttp://img16.imageshack.us/img16/5941/vlcsnap2010112614h01m25.png&lt;/a&gt; &lt;a href=&quot;\nhttp://img340.imageshack.us/img340/2731/vlcsnap2010112614h01m49.png&quot; rel=&quot;nofollow&quot; target=&quot;_NEW&quot;&gt;\nhttp://img340.imageshack.us/img340/2731/vlcsnap2010112614h01m49.png&lt;/a&gt; &lt;a href=&quot;\nhttp://img525.imageshack.us/img525/3918/vlcsnap2010112614h02m10.png&quot; rel=&quot;nofollow&quot; target=&quot;_NEW&quot;&gt;\nhttp://img525.imageshack.us/img525/3918/vlcsnap2010112614h02m10.png&lt;/a&gt;\n===================================================================================\nEnjoy!!\n","torrent":{"xt":"urn:btih:c626ddacf39c41ba38258ef6f52188aa0dad30d4","amp;dn":"Hart%5C%27s+War+2002+DVDRiP-Deemu","amp;tr":["udp%3A%2F%2Ftracker.openbittorrent.com%3A80","udp%3A%2F%2Fopen.demonii.com%3A1337","udp%3A%2F%2Ftracker.coppersurfer.tk%3A6969","udp%3A%2F%2Fexodus.desync.com%3A6969"],"infoHash":"c626ddacf39c41ba38258ef6f52188aa0dad30d4","infoHashBuffer":{"type":"Buffer","data":[198,38,221,172,243,156,65,186,56,37,142,246,245,33,136,170,13,173,48,212]},"announce":[],"urlList":[]}}